<svg width="477" height="551" viewBox="0 0 477 551" fill="none" xmlns="http://www.w3.org/2000/svg">
<path d="M413.192 376.075L238.19 477.112L203.779 457.245V530.209L238.19 550.077L476.38 412.557V137.519L238.19 0L0 137.519V412.557L169.368 510.342V235.303L238.189 195.569L307.01 235.303V314.771L238.189 354.505L203.778 334.638V407.602L238.189 427.469L370.199 351.253V198.821L238.189 122.605L106.179 198.821V400.896L63.1888 376.075V174.001L238.19 72.9641L413.192 174.001V376.075Z" fill="white"/>
<path d="M413.192 376.075L238.19 477.112L203.779 457.245V530.209L238.19 550.077L476.38 412.557V137.519L238.19 0L0 137.519V412.557L169.368 510.342V235.303L238.189 195.569L307.01 235.303V314.771L238.189 354.505L203.778 334.638V407.602L238.189 427.469L370.199 351.253V198.821L238.189 122.605L106.179 198.821V400.896L63.1888 376.075V174.001L238.19 72.9641L413.192 174.001V376.075Z" fill="url(#paint0_linear_882_45)"/>
<defs>
<linearGradient id="paint0_linear_882_45" x1="488.389" y1="8.13082" x2="-179.044" y2="489.909" gradientUnits="userSpaceOnUse">
<stop stop-color="#FFE70F"/>
<stop offset="0.374156" stop-color="#FF4DD8"/>
<stop offset="0.806324" stop-color="#4685FF"/>
</linearGradient>
</defs>
</svg>
