<svg id="Layer_1" data-name="Layer 1" xmlns="http://www.w3.org/2000/svg" viewBox="0 0 1920 871.19">
    <defs>
        <style>
            .cls-1 {
            fill: #6af3de;
            }
        </style>
    </defs>
    <polygon class="cls-1" points="439.37 225.54 286.25 225.54 220.62 645.55 592.5 645.55 610 523.05 391.25 523.05 439.37 225.54"/>
    <polyline class="cls-1" points="701.87 225.54 663.67 470.06 859.28 225.54"/>
    <polygon class="cls-1" points="819.01 470.07 663.67 470.07 636.25 645.55 793.12 645.55 819.01 470.07"/>
    <polyline class="cls-1" points="922.57 225.54 896.68 403.9 1049.15 403.9 856.4 645.55 968.04 645.55 968.05 645.65 1010.15 645.65 1031.5 513.28 1200.62 513.28 1218.12 403.9 1049.15 403.9 1058.15 348.04 1266.25 348.04 1283.75 225.54"/>
    <polygon class="cls-1" points="1310 225.54 1290.31 348.04 1406.25 348.04 1362.5 645.55 1520 645.55 1563.75 348.04 1686.25 348.04 1699.38 225.54 1310 225.54"/>
</svg>
