<svg width="881" height="295" viewBox="0 0 881 295" fill="none" xmlns="http://www.w3.org/2000/svg">
<path d="M365.452 179.839V220.814H332.199V73.8595H395.486C403.782 73.8595 411.147 75.2182 417.583 77.9356C424.162 80.653 429.668 84.3716 434.102 89.0913C438.679 93.811 442.111 99.3174 444.4 105.61C446.688 111.903 447.832 118.625 447.832 125.776C447.832 133.356 446.545 140.436 443.971 147.015C441.539 153.451 437.892 159.172 433.029 164.178C428.31 169.04 422.517 172.902 415.652 175.762C408.787 178.48 401.064 179.839 392.483 179.839H365.452ZM365.452 104.323V149.375H391.625C398.776 149.375 404.354 147.301 408.358 143.153C412.363 138.863 414.365 133.356 414.365 126.634C414.365 119.912 412.291 114.549 408.144 110.545C404.139 106.397 398.275 104.323 390.552 104.323H365.452Z" fill="#2C2942"/>
<path d="M457.153 220.814V73.8595H487.187V220.814H457.153Z" fill="#2C2942"/>
<path d="M553.325 136.718C549.178 136.718 545.316 137.504 541.74 139.077C538.308 140.651 535.304 142.796 532.73 145.513C530.156 148.088 528.082 151.234 526.509 154.953C525.078 158.528 524.363 162.318 524.363 166.323C524.363 170.471 525.078 174.332 526.509 177.908C528.082 181.483 530.156 184.63 532.73 187.347C535.304 190.065 538.308 192.21 541.74 193.783C545.316 195.213 549.178 195.928 553.325 195.928C557.616 195.928 561.549 195.213 565.124 193.783C568.843 192.21 572.061 190.065 574.778 187.347C577.496 184.63 579.57 181.483 581 177.908C582.573 174.332 583.36 170.471 583.36 166.323C583.36 162.318 582.573 158.528 581 154.953C579.427 151.234 577.281 148.088 574.564 145.513C571.846 142.796 568.628 140.651 564.91 139.077C561.334 137.504 557.473 136.718 553.325 136.718ZM582.931 212.662C579.069 215.665 574.278 218.025 568.557 219.742C562.979 221.458 557.044 222.316 550.751 222.316C543.171 222.316 536.02 220.886 529.298 218.025C522.576 215.165 516.712 211.232 511.706 206.226C506.7 201.22 502.696 195.356 499.692 188.634C496.689 181.769 495.187 174.332 495.187 166.323C495.187 158.457 496.689 151.091 499.692 144.226C502.696 137.218 506.7 131.211 511.706 126.205C516.712 121.057 522.576 117.052 529.298 114.192C536.02 111.188 543.171 109.686 550.751 109.686C557.044 109.686 562.979 110.616 568.557 112.475C574.278 114.192 579.069 116.551 582.931 119.555V110.759H612.751V220.814H582.931V212.662Z" fill="#2C2942"/>
<path d="M691.425 216.953C688.851 224.247 685.991 230.54 682.844 235.831C679.841 241.123 676.337 245.485 672.332 248.918C668.327 252.35 663.751 254.853 658.602 256.427C653.453 258 647.518 258.786 640.796 258.786H630.069V231.97H639.079C644.085 231.97 648.233 230.683 651.522 228.108C654.812 225.534 657.458 222.101 659.46 217.811L618.484 110.759H652.595L675.121 178.551L697.432 110.759H728.325L691.425 216.953Z" fill="#2C2942"/>
<path d="M850.405 104.323V73.8595H880.225V104.323H850.405ZM850.405 220.814V117.018H880.225V220.814H850.405Z" fill="#2C2942"/>
<path d="M850.405 104.323V73.8595H880.225V104.323H850.405ZM850.405 220.814V117.018H880.225V220.814H850.405Z" fill="url(#paint0_linear_882_49)"/>
<path d="M850.405 104.323V73.8595H880.225V104.323H850.405ZM850.405 220.814V117.018H880.225V220.814H850.405Z" fill="#2C2942"/>
<path d="M770.436 168.683V220.814H737.184V73.8595H835.439V104.323H770.436V139.506H835.439V168.683H770.436Z" fill="#2C2942"/>
<path d="M770.436 168.683V220.814H737.184V73.8595H835.439V104.323H770.436V139.506H835.439V168.683H770.436Z" fill="url(#paint1_linear_882_49)"/>
<path d="M770.436 168.683V220.814H737.184V73.8595H835.439V104.323H770.436V139.506H835.439V168.683H770.436Z" fill="#2C2942"/>
<path d="M221.502 201.605L127.688 255.769L109.241 245.118V284.233L127.688 294.883L255.376 221.162V73.7207L127.688 0L0 73.7207V221.162L90.7941 273.582V126.14L127.687 104.84L164.581 126.14V168.741L127.687 190.042L109.241 179.391V218.506L127.687 229.156L198.455 188.298V106.583L127.687 65.7257L56.9201 106.583V214.911L33.874 201.605V93.2779L127.688 39.1143L221.502 93.2779V201.605Z" fill="white"/>
<path d="M221.502 201.605L127.688 255.769L109.241 245.118V284.233L127.688 294.883L255.376 221.162V73.7207L127.688 0L0 73.7207V221.162L90.7941 273.582V126.14L127.687 104.84L164.581 126.14V168.741L127.687 190.042L109.241 179.391V218.506L127.687 229.156L198.455 188.298V106.583L127.687 65.7257L56.9201 106.583V214.911L33.874 201.605V93.2779L127.688 39.1143L221.502 93.2779V201.605Z" fill="url(#paint2_linear_882_49)"/>
<defs>
<linearGradient id="paint0_linear_882_49" x1="983.142" y1="15.3239" x2="722.046" y2="128.382" gradientUnits="userSpaceOnUse">
<stop stop-color="#FFE70F"/>
<stop offset="1" stop-color="#FF4DD8"/>
</linearGradient>
<linearGradient id="paint1_linear_882_49" x1="983.142" y1="15.3239" x2="722.046" y2="128.382" gradientUnits="userSpaceOnUse">
<stop stop-color="#FFE70F"/>
<stop offset="1" stop-color="#FF4DD8"/>
</linearGradient>
<linearGradient id="paint2_linear_882_49" x1="261.814" y1="4.35874" x2="-95.9813" y2="262.629" gradientUnits="userSpaceOnUse">
<stop stop-color="#FFE70F"/>
<stop offset="0.374156" stop-color="#FF4DD8"/>
<stop offset="0.806324" stop-color="#4685FF"/>
</linearGradient>
</defs>
</svg>
